<svg xmlns="http://www.w3.org/2000/svg" viewBox="0 0 427 559" fill="currentColor">
  <!-- Ninja silhouette logo -->
  <defs>
    <style>
      .ninja-body { fill: currentColor; }
      .ninja-eye { fill: white; }
    </style>
  </defs>
  <!-- Headband tails -->
  <path class="ninja-body" d="M200,10 C195,10 188,35 185,60 C182,75 178,85 172,95 C168,102 165,108 168,112 C172,116 178,112 182,105 C188,94 192,80 195,65 C197,55 200,40 205,30 C210,40 213,55 215,65 C218,80 222,94 228,105 C232,112 238,116 242,112 C245,108 242,102 238,95 C232,85 228,75 225,60 C222,35 215,10 210,10 Z"/>
  <!-- Head -->
  <path class="ninja-body" d="M148,95 C148,65 168,45 210,45 C252,45 272,65 272,95 C272,120 268,140 260,155 C255,165 245,175 230,180 C220,184 200,184 190,180 C175,175 165,165 160,155 C152,140 148,120 148,95 Z"/>
  <!-- Eye slit -->
  <path class="ninja-eye" d="M160,110 C165,105 185,98 210,98 C235,98 255,105 260,110 C260,118 255,125 210,125 C165,125 160,118 160,110 Z"/>
  <!-- Body and arms -->
  <path class="ninja-body" d="M190,178 C185,195 180,210 178,225 C175,240 170,248 155,252 C135,258 100,260 60,255 C40,252 20,248 8,250 C0,252 0,260 8,265 C20,272 50,278 80,280 C110,282 140,280 160,275 C175,270 185,262 190,250 C195,238 198,225 200,215 L210,215 L220,215 C222,225 225,238 230,250 C235,262 245,270 260,275 C280,280 310,282 340,280 C370,278 400,272 412,265 C420,260 420,252 412,250 C400,248 380,252 360,255 C320,260 285,258 265,252 C250,248 245,240 242,225 C240,210 235,195 230,178 C225,178 215,180 210,180 C205,180 195,178 190,178 Z"/>
  <!-- Torso -->
  <path class="ninja-body" d="M185,245 C180,280 178,310 180,340 C182,360 188,375 195,390 C200,400 198,410 190,420 C180,432 168,445 160,460 C152,475 148,492 155,505 C162,518 175,525 190,528 C200,530 210,530 210,530 C210,530 195,520 188,510 C182,500 185,490 192,478 C200,465 212,450 220,435 C225,425 228,415 225,405 C222,395 215,385 210,372 C205,358 202,342 202,325 C202,308 205,290 210,275 C212,268 210,260 205,255 C200,250 192,248 185,245 Z"/>
  <!-- Leg -->
  <path class="ninja-body" d="M225,405 C230,415 240,432 248,450 C255,465 258,478 252,490 C245,502 235,512 230,520 C225,528 228,535 240,535 C255,532 270,522 278,510 C288,495 285,478 278,462 C270,445 258,430 248,418 C240,408 232,400 225,395 Z"/>
</svg>